<svg width="50" height="50" viewBox="0 0 140 138" fill="none" xmlns="http://www.w3.org/2000/svg">
<path d="M53.4643 26.7593C50.4055 19.2237 46.1782 8.03675 46.4997 4.49994C46.9958 -0.956975 101.142 7.85984 101.99 7.9983C102.016 8.0026 101.991 7.99834 102.017 8.00291C102.854 8.14797 134.04 13.6006 137 20.9999C139.834 28.086 100.714 80.2508 96.3866 85.988C96.1171 86.3454 95.8096 86.6267 95.4371 86.875C92.236 89.0092 88.0129 85.807 89.0992 82.1161C93.4003 67.5022 99.3294 43.3295 93.5 37.5C87.8506 31.8505 73.3664 32.1647 64.2868 33.0107C59.6947 33.4386 55.1989 31.0326 53.4643 26.7593Z" fill="black" stroke="black" stroke-width="5"/>
<path d="M85.5001 45.5002C78.0001 43.0002 19.0001 50.0002 5.00012 58.5002C-8.99988 67.0001 52.5001 129.5 58.5001 134.5C64.5001 139.5 93.0001 48.0002 85.5001 45.5002Z" fill="black" stroke="black" stroke-width="5"/>
<circle cx="31" cy="68" r="5" fill="white"/>
<circle cx="62" cy="62" r="6" fill="#FFFCFC"/>
<circle cx="57" cy="83" r="6" fill="white"/>
<circle cx="39" cy="91" r="3" fill="white"/>
<circle cx="72" cy="22" r="5" fill="white"/>
<circle cx="113" cy="43" r="5" fill="white"/>
<ellipse cx="103" cy="27.5" rx="6" ry="5.5" fill="white"/>
</svg>
