<svg width="146" height="110" viewBox="0 0 146 110" fill="none" xmlns="http://www.w3.org/2000/svg">
<path d="M115.3 106.801H30.5328C25.0245 106.801 20.5543 102.349 20.5513 96.8405C20.5493 93.0042 20.5528 88.4688 20.5701 83.9995C20.6126 73.059 21.6787 67.3405 24.8471 58.1427C24.9942 57.7157 25.1692 57.3042 25.3832 56.9064C26.9267 54.039 33.9962 41.5447 42.5701 36.4995C52.0961 30.8941 58.3249 29.0214 70.3442 28.0562C70.8247 28.0176 71.3173 28.0161 71.7981 28.0511C84.1698 28.9521 88.5954 30.5576 96.0701 33.4995C102.76 36.1325 111.579 44.5491 113.631 46.5634C113.926 46.8537 114.2 47.1672 114.451 47.4969C120.482 55.4148 122.225 59.4975 123.07 65.9995C123.62 70.2261 124.613 85.6175 125.261 96.2388C125.612 101.976 121.048 106.801 115.3 106.801Z" fill="black" stroke="black" stroke-width="5"/>
<circle cx="49.0713" cy="73" r="4.5" fill="#FFFEFE"/>
<path d="M81.5713 78H63.5713C64.5512 83.8802 70.2753 87.0994 73.5713 87C76.8673 86.9006 81.3052 82.9509 81.5713 78Z" fill="white" stroke="white"/>
<path d="M16.5772 51.5C12.5773 59 14.0771 82.5 11.5772 82.5C9.07731 82.5 0.0772009 74.5 1.0772 66.5C2.0772 58.5 3.75764 58.5113 8.5772 53C13.3968 47.4887 5.88087 39.8319 11.5772 33C17.2735 26.1681 27.0772 25.5 27.0772 25.5C27.0772 25.5 31.5771 16 39.5772 12.5C47.5773 9 54.5772 10.5 54.5772 10.5C54.5772 10.5 58.0713 5 62.5713 3C67.0713 1 68.5714 1 73.5713 1C78.5712 1 80.5713 1 85.5713 4C90.5713 7 91.0712 9.5 91.5713 10.5C92.0714 11.5 95.5773 8 106.577 12.5C117.577 17 117.077 25.5 117.077 25.5C117.077 25.5 129.077 26.5 135.577 35.5C142.077 44.5 135.577 55 135.577 55C135.577 55 144.577 59 144.577 68C144.577 77 136.077 82.5 134.577 82.5C133.077 82.5 133.077 63 129.577 53C126.077 43 117.077 32.5 106.577 26.5C96.0772 20.5 86.0771 16.5 71.5772 16.5C57.0773 16.5 43.5771 21.5 38.5772 26.5C33.5773 31.5 20.5771 44 16.5772 51.5Z" fill="black" stroke="black"/>
<circle cx="96.0713" cy="73" r="4.5" fill="#FFFEFE"/>
</svg>
